#N canvas -9 -9 1920 976 10;
#X obj 53 98 udpreceive 6448;
#X obj 58 149 unpackOSC;
#X obj 39 223 print;
#X obj 93 260 unpack f;
#X floatatom 241 363 5 0 0 0 - - -;
#X obj 96 222 routeOSC /inputs;
#X obj 243 395 s color;
#X obj 239 472 tabwrite 100colors;
#N canvas 0 50 450 250 (subpatch) 0;
#X array 100colors 10 float 3;
#A 0 3 3 6 0 2 0 0 0 2 5;
#X coords 0 7 10 -1 200 140 1 0 0;
#X restore 9 401 graph;
#X obj 307 360 bng 15 250 50 0 empty empty empty 17 7 0 10 -262144
-1 -1;
#X obj 297 400 counter 10;
#X obj 365 193 soundfiler;
#X floatatom 365 235 15 0 0 0 - - -;
#N canvas 0 50 450 250 (subpatch) 0;
#X array agressive 3.024e+006 float 4;
#X coords 0 1 3.024e+006 -1 200 140 1;
#X restore 1339 18 graph;
#X msg 658 161 read -resize canon_sad.wav sad;
#X obj 658 193 soundfiler;
#N canvas 0 50 450 250 (subpatch) 0;
#X array sad 3.024e+006 float 4;
#X coords 0 1 3.024e+006 -1 200 140 1;
#X restore 1556 18 graph;
#X obj 879 192 soundfiler;
#X obj 1104 194 soundfiler;
#N canvas 0 50 450 250 (subpatch) 0;
#X array chill 3.024e+006 float 4;
#X coords 0 1 3.024e+006 -1 200 140 1;
#X restore 1339 184 graph;
#X msg 879 163 read -resize canon_chill.wav chill;
#X msg 1104 162 read -resize canon_happy.wav happy;
#N canvas 0 50 450 250 (subpatch) 0;
#X array happy 3.024e+006 float 4;
#X coords 0 1 3.024e+006 -1 200 140 1;
#X restore 1557 185 graph;
#X obj 365 436 line~;
#X obj 366 483 tabread~ agressive;
#X msg 365 164 read -resize agressive_canon2.wav agressive;
#X text 383 248 n of samples;
#X floatatom 411 313 5 0 0 0 - - -;
#X text 412 327 duration in ms;
#X obj 413 291 expr $f1/44100;
#X obj 413 346 * 1000;
#X obj 869 3 bng 15 250 50 0 empty empty empty 17 7 0 10 -262144 -1
-1;
#X obj 368 382 pack f f;
#X msg 368 411 0 \, \$1 \$2;
#X floatatom 657 236 15 0 0 0 - - -;
#X obj 657 437 line~;
#X text 666 249 n of samples;
#X floatatom 706 303 5 0 0 0 - - -;
#X text 707 317 duration in ms;
#X obj 708 281 expr $f1/44100;
#X obj 708 336 * 1000;
#X obj 660 383 pack f f;
#X msg 660 412 0 \, \$1 \$2;
#X obj 658 484 tabread~ sad;
#X floatatom 875 237 15 0 0 0 - - -;
#X obj 875 438 line~;
#X text 884 250 n of samples;
#X floatatom 924 304 5 0 0 0 - - -;
#X text 925 318 duration in ms;
#X obj 926 282 expr $f1/44100;
#X obj 926 337 * 1000;
#X obj 878 384 pack f f;
#X msg 878 413 0 \, \$1 \$2;
#X obj 876 485 tabread~ chill;
#X floatatom 1111 237 15 0 0 0 - - -;
#X obj 1111 438 line~;
#X text 1120 250 n of samples;
#X floatatom 1160 304 5 0 0 0 - - -;
#X text 1161 318 duration in ms;
#X obj 1162 282 expr $f1/44100;
#X obj 1162 337 * 1000;
#X obj 1114 384 pack f f;
#X msg 1114 413 0 \, \$1 \$2;
#X obj 1112 485 tabread~ happy;
#X floatatom 301 440 5 0 0 0 - - -;
#X obj 86 627 r color;
#X obj 95 694 sel 0 1 2 3 4 5 6;
#X obj 154 743 counter;
#X obj 211 743 counter;
#X obj 98 742 counter;
#X obj 370 748 counter;
#X obj 271 743 counter;
#X obj 408 675 bng 15 250 50 0 empty empty empty 17 7 0 10 -262144
-1 -1;
#X msg 408 696 0;
#X text 426 670 reset;
#X floatatom 97 774 5 0 0 0 - - -;
#X floatatom 159 772 5 0 0 0 - - -;
#X floatatom 211 773 5 0 0 0 - - -;
#X floatatom 265 772 15 0 0 0 - - -;
#X floatatom 376 794 5 0 0 0 - - -;
#X obj 86 653 t b f b;
#X obj 96 825 /;
#X obj 160 825 /;
#X obj 211 826 /;
#X obj 266 827 /;
#X obj 35 782 bng 15 250 50 0 empty empty empty 17 7 0 10 -262144 -1
-1;
#X floatatom 46 868 5 0 0 0 - - -;
#X floatatom 157 866 5 0 0 0 - - -;
#X floatatom 250 866 5 0 0 0 - - -;
#X floatatom 339 864 15 0 0 0 - - -;
#X obj 38 954 s agress;
#X obj 153 948 s happy;
#X obj 252 959 s chill;
#X obj 368 951 s sad;
#X obj 437 512 r agress;
#X obj 1181 524 r happy;
#X obj 958 529 r chill;
#X obj 715 524 r sad;
#X obj 780 824 dac~;
#X obj 424 569 line;
#X obj 706 575 line;
#X obj 931 576 line;
#X obj 1171 576 line;
#X floatatom 461 605 5 0 0 0 - - -;
#X floatatom 722 611 5 0 0 0 - - -;
#X floatatom 968 608 5 0 0 0 - - -;
#X floatatom 1203 609 5 0 0 0 - - -;
#X msg 425 542 \$1 20;
#X msg 703 544 \$1 20;
#X msg 932 549 \$1 20;
#X msg 1172 548 \$1 20;
#X text 222 218 [0] red;
#X text 220 232 [1] yellow;
#X text 221 249 [2] orange;
#X text 221 265 [3] green;
#X text 221 278 [4] blue;
#X text 221 292 [5] purple;
#X text 220 305 [6] grey;
#X obj 917 78 metro;
#X obj 383 593 *~;
#X obj 660 594 *~;
#X obj 893 595 *~;
#X obj 1129 595 *~;
#X obj 197 44 soundfiler;
#X floatatom 197 86 10 0 0 0 - - -;
#X msg 197 15 read -resize agressive_canon2.wav agressive;
#X text 218 99 n of samples;
#X floatatom 246 153 5 0 0 0 - - -;
#X text 253 167 duration in ms;
#X obj 248 131 expr $f1/44100;
#X obj 248 186 * 1000;
#X obj 836 32 t b b;
#X obj 254 930 spigot;
#X obj 381 924 spigot;
#X obj 149 919 spigot;
#X obj 44 930 spigot;
#X obj 399 886 > 0.1 || ==0;
#X obj 272 892 > 0.1 || ==0;
#X obj 172 894 > 0.1 || ==0;
#X obj 113 296 sel 555;
#X obj 99 349 bng 15 250 50 0 empty empty empty 17 7 0 10 -262144 -1
-1;
#X text 217 234 comment;
#X obj 176 328 sel 777;
#X obj 63 897 > 0.1 || ==0;
#X obj 425 733 s sad;
#X obj 510 732 s chill;
#X obj 555 731 s happy;
#X obj 459 733 s agress;
#X connect 0 0 1 0;
#X connect 1 0 2 0;
#X connect 1 0 5 0;
#X connect 3 0 139 0;
#X connect 4 0 6 0;
#X connect 4 0 7 0;
#X connect 5 0 3 0;
#X connect 9 0 10 0;
#X connect 10 0 7 1;
#X connect 10 0 64 0;
#X connect 11 0 12 0;
#X connect 12 0 29 0;
#X connect 12 0 32 0;
#X connect 14 0 15 0;
#X connect 15 0 34 0;
#X connect 17 0 44 0;
#X connect 18 0 54 0;
#X connect 20 0 17 0;
#X connect 21 0 18 0;
#X connect 23 0 24 0;
#X connect 24 0 119 0;
#X connect 25 0 11 0;
#X connect 27 0 30 0;
#X connect 29 0 27 0;
#X connect 30 0 32 1;
#X connect 31 0 118 0;
#X connect 31 0 131 0;
#X connect 32 0 33 0;
#X connect 33 0 23 0;
#X connect 34 0 39 0;
#X connect 34 0 41 0;
#X connect 35 0 43 0;
#X connect 37 0 40 0;
#X connect 39 0 37 0;
#X connect 40 0 41 1;
#X connect 41 0 42 0;
#X connect 42 0 35 0;
#X connect 43 0 120 0;
#X connect 44 0 49 0;
#X connect 44 0 51 0;
#X connect 45 0 53 0;
#X connect 47 0 50 0;
#X connect 49 0 47 0;
#X connect 50 0 51 1;
#X connect 51 0 52 0;
#X connect 52 0 45 0;
#X connect 53 0 121 0;
#X connect 54 0 59 0;
#X connect 54 0 61 0;
#X connect 55 0 63 0;
#X connect 57 0 60 0;
#X connect 59 0 57 0;
#X connect 60 0 61 1;
#X connect 61 0 62 0;
#X connect 62 0 55 0;
#X connect 63 0 122 0;
#X connect 65 0 80 0;
#X connect 66 0 69 0;
#X connect 66 1 67 0;
#X connect 66 2 69 0;
#X connect 66 3 67 0;
#X connect 66 4 68 0;
#X connect 66 5 71 0;
#X connect 66 6 71 0;
#X connect 67 0 76 0;
#X connect 68 0 77 0;
#X connect 69 0 75 0;
#X connect 70 0 79 0;
#X connect 71 0 78 0;
#X connect 72 0 73 0;
#X connect 73 0 70 3;
#X connect 73 0 71 3;
#X connect 73 0 68 3;
#X connect 73 0 67 3;
#X connect 73 0 69 3;
#X connect 73 0 85 0;
#X connect 73 0 144 0;
#X connect 73 0 145 0;
#X connect 73 0 146 0;
#X connect 73 0 147 0;
#X connect 75 0 81 0;
#X connect 76 0 82 0;
#X connect 77 0 83 0;
#X connect 78 0 84 0;
#X connect 79 0 81 1;
#X connect 79 0 82 1;
#X connect 79 0 83 1;
#X connect 79 0 84 1;
#X connect 80 0 85 0;
#X connect 80 1 66 0;
#X connect 80 2 70 0;
#X connect 81 0 86 0;
#X connect 82 0 87 0;
#X connect 83 0 88 0;
#X connect 84 0 89 0;
#X connect 85 0 81 0;
#X connect 85 0 82 0;
#X connect 85 0 83 0;
#X connect 85 0 84 0;
#X connect 86 0 135 0;
#X connect 86 0 143 0;
#X connect 87 0 134 0;
#X connect 87 0 138 0;
#X connect 88 0 132 0;
#X connect 88 0 137 0;
#X connect 89 0 133 0;
#X connect 89 0 136 0;
#X connect 94 0 107 0;
#X connect 95 0 110 0;
#X connect 96 0 109 0;
#X connect 97 0 108 0;
#X connect 99 0 103 0;
#X connect 99 0 119 1;
#X connect 100 0 104 0;
#X connect 100 0 120 1;
#X connect 101 0 105 0;
#X connect 101 0 121 1;
#X connect 102 0 106 0;
#X connect 102 0 122 1;
#X connect 107 0 99 0;
#X connect 108 0 100 0;
#X connect 109 0 101 0;
#X connect 110 0 102 0;
#X connect 118 0 25 0;
#X connect 118 0 14 0;
#X connect 118 0 20 0;
#X connect 118 0 21 0;
#X connect 119 0 98 0;
#X connect 119 0 98 1;
#X connect 120 0 98 0;
#X connect 120 0 98 1;
#X connect 121 0 98 0;
#X connect 121 0 98 1;
#X connect 122 0 98 0;
#X connect 122 0 98 1;
#X connect 123 0 124 0;
#X connect 124 0 129 0;
#X connect 125 0 123 0;
#X connect 127 0 130 0;
#X connect 129 0 127 0;
#X connect 130 0 118 1;
#X connect 131 0 118 0;
#X connect 131 1 125 0;
#X connect 132 0 92 0;
#X connect 133 0 93 0;
#X connect 134 0 91 0;
#X connect 135 0 90 0;
#X connect 136 0 133 1;
#X connect 137 0 132 1;
#X connect 138 0 134 1;
#X connect 139 0 140 0;
#X connect 139 1 142 0;
#X connect 140 0 31 0;
#X connect 140 0 72 0;
#X connect 142 0 72 0;
#X connect 142 1 4 0;
#X connect 142 1 9 0;
#X connect 143 0 135 1;
